<svg xmlns="http://www.w3.org/2000/svg" xmlns:xlink="http://www.w3.org/1999/xlink" width="267" height="261.001" viewBox="0 0 267 261.001">
  <defs>
    <style>
      .cls-1 {
        fill: url(#radial-gradient);
      }

      .cls-2, .cls-4 {
        fill: #d6a26f;
      }

      .cls-2 {
        stroke: #d6a26f;
        stroke-width: 6px;
      }

      .cls-3 {
        fill: #362928;
        stroke: rgba(0,0,0,0);
      }

      .cls-5 {
        fill: #372928;
      }

      .cls-6 {
        fill: #a23337;
      }
    </style>
    <radialGradient id="radial-gradient" cx="0.5" cy="0.5" r="0.5" gradientUnits="objectBoundingBox">
      <stop offset="0" stop-color="#362928"/>
      <stop offset="0.312" stop-color="#302423" stop-opacity="0.886"/>
      <stop offset="1" stop-opacity="0"/>
    </radialGradient>
  </defs>
  <g id="Main_Logo" data-name="Main Logo" transform="translate(-826.5 37.5)">
    <path id="Shadow_circle" data-name="Shadow circle" class="cls-1" d="M130.5,0A130.5,130.5,0,1,1,0,130.5,130.5,130.5,0,0,1,130.5,0Z" transform="translate(829.5 -37.5)"/>
    <path id="Intersection_2" data-name="Intersection 2" class="cls-2" d="M-3141.39,159.5a130.151,130.151,0,0,1-9.111-48,130.151,130.151,0,0,1,9.111-48h242.778a130.151,130.151,0,0,1,9.111,48,130.146,130.146,0,0,1-9.111,48Z" transform="translate(3980 -18.5)"/>
    <path id="Black_Circle" data-name="Black Circle" class="cls-3" d="M112,0A112,112,0,1,1,0,112,112,112,0,0,1,112,0Z" transform="translate(848 -19)"/>
    <g id="Communist">
      <g id="Group_557" data-name="Group 557">
        <circle id="Ellipse_71" data-name="Ellipse 71" class="cls-4" cx="90" cy="90" r="90" transform="translate(869.999 2.999)"/>
        <path id="Path_1235" data-name="Path 1235" class="cls-5" d="M960,0a93,93,0,1,0,93,93A93,93,0,0,0,960,0Zm0,156a63,63,0,1,1,63-63A63,63,0,0,1,960,156Z"/>
        <g id="Group_549" data-name="Group 549">
          <g id="Group_547" data-name="Group 547">
            <path id="Path_1236" data-name="Path 1236" class="cls-5" d="M1017.71,162.055q-1.238,1.043-2.51,2.03l-14.72-18.96q.93-.72,1.84-1.485Z"/>
            <path id="Path_1237" data-name="Path 1237" class="cls-4" d="M1020.8,159.35c-1.01.925-2.04,1.83-3.09,2.7l-15.39-18.415q1.162-.96,2.27-1.98Z"/>
          </g>
          <g id="Group_548" data-name="Group 548">
            <path id="Path_1238" data-name="Path 1238" class="cls-5" d="M902.29,162.055q1.238,1.043,2.51,2.03l14.72-18.96q-.93-.72-1.84-1.485Z"/>
            <path id="Path_1239" data-name="Path 1239" class="cls-4" d="M899.2,159.35c1.01.925,2.04,1.83,3.09,2.7l15.39-18.415q-1.162-.96-2.27-1.98Z"/>
          </g>
          <path id="Path_1240" data-name="Path 1240" class="cls-5" d="M1015.2,164.085a90,90,0,0,1-110.4,0l14.72-18.96a65.987,65.987,0,0,0,80.96,0Z"/>
          <path id="Path_1241" data-name="Path 1241" class="cls-6" d="M894,93a65.813,65.813,0,0,0,19.33,46.67l-16.97,16.97a90,90,0,0,1,0-127.28l16.97,16.97A65.813,65.813,0,0,0,894,93Z"/>
          <path id="Path_1242" data-name="Path 1242" class="cls-5" d="M1023.64,29.36l-16.97,16.97a66,66,0,0,0-93.34,0L896.36,29.36a90,90,0,0,1,127.28,0Z"/>
          <path id="Path_1243" data-name="Path 1243" class="cls-5" d="M1023.64,156.64c-.355.355-.71.705-1.07,1.05-.245.235-.49.475-.74.705-.155.155-.315.3-.475.445q-.277.263-.555.51l-16.21-17.69c.045-.045.095-.085.14-.13.31-.28.61-.565.91-.855.35-.33.69-.665,1.03-1.005Z"/>
          <path id="Path_1244" data-name="Path 1244" class="cls-6" d="M1050,93a89.737,89.737,0,0,1-26.36,63.64l-16.97-16.97a66,66,0,0,0,0-93.34l16.97-16.97A89.737,89.737,0,0,1,1050,93Z"/>
        </g>
        <g id="Group_554" data-name="Group 554">
          <g id="Group_550" data-name="Group 550">
            <path id="Path_1245" data-name="Path 1245" class="cls-4" d="M1002.708,153.424l-4.623-6.529a64.01,64.01,0,0,1-11.767,6.634l2.4,5.5a77.214,77.214,0,0,0,17.273,6.648c-1.248.776-2.515,1.524-3.783,2.267-1.3.687-2.577,1.418-3.9,2.061l-1.784-3.58-1.9.909-.949.453-.968.411,3.194,7.335a88.031,88.031,0,0,0,16.055-9.053l-3.467-4.9a75.96,75.96,0,0,1-17.32-5.9c1.077-.52,2.112-1.122,3.173-1.675,1.029-.609,2.061-1.215,3.078-1.845l2.142,3.378,1.582-1.047C1001.671,154.148,1002.205,153.807,1002.708,153.424Z"/>
            <path id="Path_1246" data-name="Path 1246" class="cls-4" d="M908.045,166.481a88.031,88.031,0,0,0,16.055,9.053l1.6-3.668a88.541,88.541,0,0,1-11.683-6.188l8.567-13.513a72.646,72.646,0,0,0,9.5,5.032l1.6-3.668a64.01,64.01,0,0,1-11.767-6.634Z"/>
            <path id="Path_1247" data-name="Path 1247" class="cls-4" d="M943.254,156.839a64.166,64.166,0,0,0,6.618,1.376l-3.649,23.721-2.277-.382-1.137-.2-1.129-.243.406-1.959c-1.471-.322-2.948-.617-4.4-1.031l-2.182-.585c-.724-.205-1.437-.447-2.156-.671l-.6,1.907c-.733-.237-1.47-.462-2.2-.711l-2.167-.8,3.162-8.426q1.633-1.4,3.176-2.823c1.033-.968,2.044-1.97,3.02-2.968s1.919-2,2.839-3.04S942.394,157.9,943.254,156.839Zm.727,4.31c-1.335,1.767-2.722,3.425-4.2,5.114-.735.833-1.494,1.684-2.261,2.488s-1.552,1.6-2.355,2.4l-.606,1.906c.686.213,1.367.445,2.058.641l2.081.557c1.382.4,2.792.676,4.2.984l2.838-13.709Z"/>
            <path id="Path_1248" data-name="Path 1248" class="cls-4" d="M968.188,172.576c-1.359.143-2.726.209-4.089.316,1.43,1.225,2.932,2.487,4.494,3.664l.607,5.969c-1.529.16-3.064.239-4.6.354l-.2-3.995c-1.534-1.273-3-2.587-4.4-3.884q-1.05-1.024-2.05-2.048c-.683-.021-1.367-.023-2.049-.06l-.505,9.987c-1.532-.115-3.067-.194-4.6-.354l2.428-23.877c1.123.119,2.253.167,3.379.262L960,159l3.393-.09c1.126-.1,2.256-.143,3.379-.262Zm-4.593-9.671L960,163l-3.595-.1-.3,5.992c1.3.05,2.6.067,3.9.1,1.3-.036,2.6-.053,3.9-.1Z"/>
            <path id="Path_1249" data-name="Path 1249" class="cls-4" d="M984.59,158.54l5.623,14.98q-.684,1.32-1.416,2.654c-.494.874-1.013,1.729-1.544,2.6a86.94,86.94,0,0,1-13.476,3.161l-3.649-23.721a62.938,62.938,0,0,0,9.863-2.315c.738.461,1.5.932,2.264,1.375Q983.4,157.914,984.59,158.54Zm-2.783,3.078c-.79-.453-1.556-.891-2.317-1.37l-2.6.694c-.868.224-1.751.387-2.625.587l3.243,15.668c1.076-.242,2.161-.45,3.229-.724l3.2-.855c.522-.841,1.017-1.714,1.5-2.562Z"/>
          </g>
          <g id="Group_553" data-name="Group 553">
            <g id="Group_551" data-name="Group 551">
              <path id="Path_1250" data-name="Path 1250" class="cls-4" d="M1002.132,13.492l-11.253,21.2c-.5-.261-.975-.569-1.493-.794l-1.535-.708c-1.026-.466-2.027-.99-3.094-1.358-1.055-.4-2.1-.826-3.156-1.211l-3.226-1.006,6.669-23.055,4.409,1.381c1.448.52,2.878,1.095,4.315,1.647,1.451.523,2.83,1.212,4.23,1.852l2.092.977C1000.792,12.733,1001.45,13.135,1002.132,13.492Zm-5.825,1.572c-2.639-1.305-5.413-2.3-8.163-3.344L982.91,26.84c2.229.861,4.491,1.651,6.632,2.724Z"/>
              <path id="Path_1251" data-name="Path 1251" class="cls-4" d="M962.3,3.072l-.1,4,3.3.115c1.1.058,2.194.2,3.291.3l-2.025,19.9c1.122.124,2.253.184,3.358.417l3.041-19.768c2.173.378,4.359.693,6.493,1.266l.911-3.895-2.247-.535c-.755-.145-1.515-.268-2.273-.4l-2.276-.388c-.759-.123-1.515-.274-2.282-.335L966.9,3.28c-.764-.1-1.532-.094-2.3-.129Z"/>
              <path id="Path_1252" data-name="Path 1252" class="cls-4" d="M1020.906,26.782c-1.094-1.081-2.295-2.044-3.476-3.029L1013.6,28.37q-1.467.081-2.9.2c-.942.064-1.933.218-2.877.339l-1.658-1.207-.829-.6-.415-.3-.433-.275,5.569-8.306-3.9-2.47L993.835,36.335l2.859,1.812,5.569-8.306.412.261.394.286.787.574,1.576,1.148c.118.926.257,1.8.32,2.74s.134,1.847.181,2.753L1002.1,42.22c.866.724,1.759,1.417,2.554,2.223l5.417-5.887c.008-1.879-.135-3.689-.306-5.57,1.875-.171,3.826-.325,5.723-.317Z"/>
            </g>
            <g id="Group_552" data-name="Group 552">
              <path id="Path_1253" data-name="Path 1253" class="cls-4" d="M916.724,37.992l-1.38,1.15L902.57,23.753c-1.181.985-2.382,1.948-3.476,3.029l16.251,17.661c.8-.806,1.688-1.5,2.554-2.223l1.3-1.086c.423-.376.907-.673,1.356-1.014q-.438-2-.8-4.057-.18-1.029-.342-2.072l-.156-1.046-.129-1.027q-.5-4.12-.668-8.453l-4.622-7.722-3.9,2.47,4.456,6.645c.1,1.1.262,2.243.423,3.358s.343,2.225.537,3.32C915.753,33.737,916.178,35.849,916.724,37.992Z"/>
              <path id="Path_1254" data-name="Path 1254" class="cls-4" d="M934.956,6.559l6.669,23.055L938.4,30.62c-1.059.385-2.1.814-3.156,1.211-1.067.368-2.068.892-3.094,1.358l-1.535.708c-.518.225-.994.533-1.493.794l-11.253-21.2c.682-.357,1.34-.759,2.042-1.076L922,11.439c1.4-.64,2.779-1.329,4.23-1.852,1.437-.552,2.867-1.127,4.315-1.647Zm-3.1,5.161c-2.75,1.042-5.524,2.039-8.163,3.344l6.765,14.5c2.141-1.073,4.4-1.863,6.632-2.724Z"/>
              <path id="Path_1255" data-name="Path 1255" class="cls-4" d="M940.8,11.249l-1.367-5.842,2.247-.535c.755-.145,1.515-.268,2.273-.4l2.276-.388c.759-.123,1.515-.274,2.282-.335l4.59-.468c.764-.1,1.532-.094,2.3-.129l2.3-.079.2,8-2.1.072c-.7.031-1.4.025-2.1.116l-.3-3.988-4.386.447c-.733.056-1.455.2-2.181.32l-2.174.371q1.941,1.443,3.749,2.912c1.209,1,2.383,2.087,3.507,3.135,1.127,1.069,2.205,2.095,3.246,3.21q1.562,1.7,2.992,3.4l.151,6-1.7.056c-.564.025-1.132.011-1.692.091l-3.369.344a16.535,16.535,0,0,0-1.673.249l-1.667.286c-.555.1-1.113.18-1.667.284l-1.642.4-1.823-7.79,1.844-.446c.62-.118,1.246-.214,1.869-.323l.709,3.936,1.769-.3c.59-.1,1.176-.224,1.774-.263l3.573-.364A75.535,75.535,0,0,0,940.8,11.249Z"/>
            </g>
          </g>
        </g>
        <g id="Group_555" data-name="Group 555">
          <path id="Path_1256" data-name="Path 1256" class="cls-4" d="M1028.151,103.794l7.951,7.334,9.828-4.518-7.951-7.334Z"/>
          <path id="Path_1257" data-name="Path 1257" class="cls-4" d="M1036.47,63c.146-.061.224-.1.224-.1a4,4,0,1,0-3.631-7.128,4,4,0,1,0-3.632-7.128s-.079.04-.213.122c-.093.054-.182.112-.268.172-1.413.947-5.533,4.343-6.58,12.282,7.038,3.819,12.207,2.482,13.8,1.9C1036.273,63.082,1036.372,63.044,1036.47,63Z"/>
          <path id="Path_1258" data-name="Path 1258" class="cls-5" d="M1028.707,133.232a4.052,4.052,0,0,0,.726-1.717.1.1,0,0,1,.189-.009,4,4,0,1,0,2.452-4.814.1.1,0,0,1-.1-.158,4,4,0,1,0-6.417-4.622,3.98,3.98,0,0,0-.259,2.98.1.1,0,0,1-.173.091,10.927,10.927,0,0,1-1.8-3.088l-2.724,5.346a10.907,10.907,0,0,1,3.558-.355.1.1,0,0,1,.028.193,4,4,0,1,0,4.527,6.153Z"/>
          <path id="Path_1259" data-name="Path 1259" class="cls-5" d="M1035.569,89.118c.1-.023.206-.05.307-.08,1.636-.465,6.6-2.421,10.053-9.648-5.513-5.807-10.842-6.133-12.542-6.069-.1,0-.211.009-.317.019-.158.013-.245.026-.245.026a4,4,0,0,0-3.325,4.576,3.84,3.84,0,0,0,1.541,2.571c-.018-.013.018.014,0,0a.094.094,0,0,1-.085.165,10.913,10.913,0,0,1-3.275-1.435l.939,5.926a10.91,10.91,0,0,1,2.671-2.377.094.094,0,0,1,.132.131c.013-.019-.014.018,0,0a3.834,3.834,0,0,0-.671,2.921,4,4,0,0,0,4.576,3.325S1035.415,89.155,1035.569,89.118Z"/>
        </g>
        <g id="Group_556" data-name="Group 556">
          <path id="Path_1260" data-name="Path 1260" class="cls-4" d="M891.849,103.794l-7.951,7.334-9.828-4.518,7.951-7.334Z"/>
          <path id="Path_1261" data-name="Path 1261" class="cls-4" d="M883.53,63c-.146-.061-.224-.1-.224-.1a4,4,0,1,1,3.631-7.128,4,4,0,0,1,3.632-7.128s.079.04.213.122c.093.054.182.112.268.172,1.413.947,5.533,4.343,6.58,12.282-7.038,3.819-12.207,2.482-13.8,1.9C883.727,63.082,883.628,63.044,883.53,63Z"/>
          <path id="Path_1262" data-name="Path 1262" class="cls-5" d="M895.91,134.6a4,4,0,0,0-.09-7.526.1.1,0,0,1,.028-.193,10.907,10.907,0,0,1,3.558.355l-2.724-5.346a10.927,10.927,0,0,1-1.8,3.088.1.1,0,0,1-.173-.091,4,4,0,1,0-7.638.045,4.041,4.041,0,0,0,.962,1.6.1.1,0,0,1-.1.158,4,4,0,1,0,2.452,4.814.1.1,0,0,1,.189.009,4,4,0,0,0,5.343,3.09Z"/>
          <path id="Path_1263" data-name="Path 1263" class="cls-5" d="M884.672,89.169a4,4,0,0,0,4.576-3.325,3.834,3.834,0,0,0-.671-2.921c.014.018-.013-.019,0,0a.094.094,0,0,1,.132-.131,10.909,10.909,0,0,1,2.671,2.377l.939-5.926a10.912,10.912,0,0,1-3.275,1.435.094.094,0,0,1-.085-.165h0a3.84,3.84,0,0,0,1.541-2.571,4,4,0,0,0-3.325-4.576s-.087-.013-.245-.026c-.106-.01-.212-.017-.317-.019-1.7-.064-7.029.262-12.542,6.069,3.448,7.227,8.417,9.183,10.053,9.648.1.03.2.057.307.08C884.585,89.155,884.672,89.169,884.672,89.169Z"/>
        </g>
      </g>
      <g id="Group_564" data-name="Group 564">
        <path id="Path_1264" data-name="Path 1264" class="cls-5" d="M955.285,33.185a67.1,67.1,0,0,0-36.18,50.8c-.14,1.02-.255,2.055-.345,3.09l-18.68,2.875a59.616,59.616,0,0,1,3.25-16.705c.175-.5.355-1.01.55-1.5.065-.19.14-.38.215-.57.14-.355.28-.715.43-1.07.2-.49.41-.975.62-1.455q.525-1.178,1.095-2.325c.21-.425.425-.84.645-1.255.205-.395.42-.785.635-1.175a60.325,60.325,0,0,1,3.555-5.635c.255-.36.515-.715.78-1.075q.8-1.065,1.635-2.09c.28-.345.56-.685.85-1.02s.575-.67.87-1,.59-.655.895-.98.605-.645.915-.96c.64-.655,1.29-1.295,1.96-1.925.6-.56,1.215-1.115,1.84-1.65a59.881,59.881,0,0,1,5.33-4.1c.365-.25.735-.5,1.1-.74s.745-.48,1.125-.715.755-.465,1.14-.69.77-.45,1.155-.665.78-.435,1.175-.645c1.18-.63,2.385-1.215,3.61-1.765.345-.155.7-.31,1.045-.46.21-.09.42-.175.63-.26.31-.135.625-.26.94-.38.375-.15.75-.29,1.13-.43.42-.155.845-.31,1.275-.455s.855-.29,1.285-.425.865-.27,1.3-.4c.275-.08.55-.16.83-.235.595-.17,1.2-.325,1.8-.475.295-.07.595-.14.89-.205.6-.14,1.19-.27,1.8-.385.45-.09.9-.17,1.36-.25.33-.055.66-.11.995-.16.31-.05.62-.1.935-.135.325-.05.65-.1.975-.13.41-.055.825-.1,1.235-.14.395-.04.795-.075,1.19-.1C955.15,33.195,955.215,33.19,955.285,33.185Z"/>
        <path id="Path_1265" data-name="Path 1265" class="cls-5" d="M955.285,152.815a2.119,2.119,0,0,1-.25-.025c-.4-.03-.8-.065-1.195-.1-.48-.05-.96-.1-1.435-.165-1.07-.135-2.135-.295-3.185-.49-.355-.065-.7-.13-1.055-.2-.945-.185-1.88-.4-2.8-.635-.445-.11-.89-.225-1.33-.35q-1.358-.375-2.7-.81c-.93-.3-1.855-.63-2.765-.98-.4-.15-.785-.3-1.17-.46-.43-.175-.855-.355-1.28-.54s-.85-.375-1.27-.57-.835-.39-1.25-.6-.83-.41-1.235-.625-.815-.43-1.22-.65-.8-.45-1.205-.68-.79-.465-1.18-.705-.785-.485-1.17-.73c-.4-.255-.8-.52-1.19-.785-.715-.485-1.42-.99-2.115-1.5a.957.957,0,0,1-.085-.065c-1.1-.82-2.175-1.68-3.215-2.57q-1.043-.893-2.04-1.83c-.665-.62-1.32-1.265-1.955-1.92-.32-.33-.635-.66-.945-.995-.62-.67-1.23-1.355-1.82-2.05-.295-.35-.59-.7-.875-1.055s-.575-.715-.855-1.08-.555-.725-.825-1.1q-1.627-2.212-3.06-4.57-.712-1.178-1.37-2.4t-1.265-2.465c-.2-.415-.4-.835-.59-1.255-.385-.84-.75-1.695-1.1-2.555-.19-.465-.37-.935-.545-1.4q-.457-1.238-.87-2.505c-.145-.46-.29-.925-.43-1.395-.26-.885-.5-1.775-.725-2.68-.38-1.55-.7-3.125-.95-4.725-.055-.3-.1-.6-.14-.9A60.217,60.217,0,0,1,900,93l18.56,2.855q.067,1.545.2,3.065a67.073,67.073,0,0,0,36.525,53.9Z"/>
        <g id="Group_558" data-name="Group 558">
          <path id="Path_1266" data-name="Path 1266" class="cls-5" d="M903.38,86.41,919.1,83.99a66.964,66.964,0,0,1,28.725-46.4c.085-.115.17-.225.255-.335A57.064,57.064,0,0,0,903.38,86.41Zm51.9-53.225c-.07,0-.135.01-.2.02-.4.03-.8.065-1.19.1-.41.04-.825.085-1.235.14-.325.035-.65.08-.975.13-.315.035-.625.085-.935.135-.335.05-.665.1-.995.16-.455.08-.91.16-1.36.25-.605.115-1.2.245-1.8.385-.295.065-.595.135-.89.205-.605.15-1.21.305-1.8.475-.28.075-.555.155-.83.235-.44.13-.87.26-1.3.4s-.86.28-1.285.425-.855.3-1.275.455c-.38.14-.755.28-1.13.43-.315.12-.63.245-.94.38-.21.085-.42.17-.63.26-.35.15-.7.305-1.045.46-1.225.55-2.43,1.135-3.61,1.765-.395.21-.785.425-1.175.645s-.775.44-1.155.665-.765.455-1.14.69-.755.475-1.125.715-.74.49-1.1.74a59.881,59.881,0,0,0-5.33,4.1c-.625.535-1.24,1.09-1.84,1.65-.67.63-1.32,1.27-1.96,1.925q-.465.473-.915.96c-.3.325-.6.655-.895.98s-.585.665-.87,1-.57.675-.85,1.02q-.84,1.027-1.635,2.09c-.265.36-.525.715-.78,1.075A60.325,60.325,0,0,0,907.52,63.9c-.215.39-.43.78-.635,1.175-.22.415-.435.83-.645,1.255q-.57,1.147-1.095,2.325c-.21.48-.42.965-.62,1.455-.15.355-.29.715-.43,1.07-.075.19-.15.38-.215.57-.2.495-.375,1-.55,1.5a59.616,59.616,0,0,0-3.25,16.705l18.68-2.875,13.6-2.1A87.678,87.678,0,0,1,955.47,33.17ZM929.615,82.37,919.1,83.99a66.964,66.964,0,0,1,28.725-46.4A91.361,91.361,0,0,0,929.615,82.37Z"/>
          <path id="Path_1267" data-name="Path 1267" class="cls-6" d="M947.83,37.585A91.361,91.361,0,0,0,929.615,82.37L919.1,83.99A66.964,66.964,0,0,1,947.83,37.585Z"/>
          <path id="Path_1268" data-name="Path 1268" class="cls-5" d="M947.82,148.41a66.958,66.958,0,0,1-29.06-49.49l-15.655-2.4A57.034,57.034,0,0,0,948.08,148.75C947.995,148.635,947.905,148.525,947.82,148.41ZM932.14,97.945l-13.58-2.09L900,93a60.217,60.217,0,0,0,.63,8.705c.04.3.085.6.14.9.25,1.6.57,3.175.95,4.725.225.9.465,1.795.725,2.68.14.47.285.935.43,1.395q.405,1.268.87,2.505c.175.47.355.94.545,1.4.34.86.705,1.715,1.1,2.555.19.42.385.84.59,1.255q.6,1.252,1.265,2.465t1.37,2.4q1.425,2.355,3.06,4.57c.27.37.55.735.825,1.1s.565.725.855,1.08.58.705.875,1.055c.585.695,1.2,1.38,1.82,2.05.31.335.625.665.945.995.635.655,1.29,1.3,1.955,1.92s1.345,1.24,2.04,1.83c1.04.9,2.11,1.755,3.215,2.57a.957.957,0,0,0,.085.065c.7.51,1.4,1.015,2.115,1.5.395.265.79.53,1.19.785.385.245.775.49,1.17.73s.785.475,1.18.705.8.455,1.205.68.81.435,1.22.65.82.42,1.235.625.83.4,1.25.6.845.385,1.27.57.85.365,1.28.54c.385.155.775.31,1.17.46.91.35,1.835.68,2.765.98q1.335.442,2.7.81c.44.125.885.24,1.33.35.925.235,1.86.45,2.8.635.35.07.7.135,1.055.2,1.05.2,2.115.355,3.185.49.475.06.955.115,1.435.165.395.04.795.075,1.195.1a2.119,2.119,0,0,0,.25.025l.185.015A87.631,87.631,0,0,1,932.14,97.945Zm-13.38.975,10.55,1.625a91.02,91.02,0,0,0,18.51,47.865A66.958,66.958,0,0,1,918.76,98.92Z"/>
          <path id="Path_1269" data-name="Path 1269" class="cls-6" d="M947.82,148.41a66.958,66.958,0,0,1-29.06-49.49l10.55,1.625A91.02,91.02,0,0,0,947.82,148.41Z"/>
        </g>
        <g id="Group_562" data-name="Group 562">
          <g id="Group_559" data-name="Group 559">
            <circle id="Ellipse_72" data-name="Ellipse 72" class="cls-5" cx="6" cy="6" r="6" transform="translate(918.999 52.501)"/>
            <path id="Path_1270" data-name="Path 1270" class="cls-6" d="M930,55.184a5.707,5.707,0,0,0-.955-.7,5.5,5.5,0,0,0-5.5,9.527,5.735,5.735,0,0,0,1.08.479A6,6,0,1,1,930,55.184Z"/>
          </g>
          <g id="Group_560" data-name="Group 560">
            <circle id="Ellipse_73" data-name="Ellipse 73" class="cls-5" cx="4.5" cy="4.5" r="4.5" transform="translate(928 132.5)"/>
            <path id="Path_1271" data-name="Path 1271" class="cls-6" d="M931.446,132.622a4.332,4.332,0,0,0-.736.5,4.125,4.125,0,0,0,5.3,6.32,4.25,4.25,0,0,0,.615-.638,4.5,4.5,0,1,1-5.182-6.177Z"/>
          </g>
          <g id="Group_561" data-name="Group 561">
            <path id="Path_1272" data-name="Path 1272" class="cls-5" d="M925.131,77.26a4,4,0,0,1-2.391-5.127,3,3,0,1,0,3.845-1.793,3,3,0,0,0-3.845,1.793,4,4,0,1,1,2.391,5.127Z"/>
          </g>
        </g>
        <g id="Group_563" data-name="Group 563">
          <path id="Path_1273" data-name="Path 1273" class="cls-5" d="M944,64.5a8,8,0,0,1-8,8,8,8,0,0,1,8,8,8,8,0,0,1,8-8A8,8,0,0,1,944,64.5Zm0,9.643a10.379,10.379,0,0,0-1.643-1.643A10.379,10.379,0,0,0,944,70.857a10.379,10.379,0,0,0,1.643,1.643A10.379,10.379,0,0,0,944,74.143Z"/>
          <path id="Path_1274" data-name="Path 1274" class="cls-5" d="M948,53.5a6,6,0,0,1-6,6,6,6,0,0,1,6,6,6,6,0,0,1,6-6A6,6,0,0,1,948,53.5Zm0,7.232a7.8,7.8,0,0,0-1.232-1.232A7.8,7.8,0,0,0,948,58.268a7.8,7.8,0,0,0,1.232,1.232A7.8,7.8,0,0,0,948,60.732Z"/>
        </g>
      </g>
      <g id="Group_573" data-name="Group 573">
        <g id="Group_567" data-name="Group 567">
          <g id="Group_565" data-name="Group 565">
            <path id="Path_1275" data-name="Path 1275" class="cls-6" d="M990.52,83.365a31.408,31.408,0,0,1,1.185,5.285l-2.585-.4c-.145-.885-.325-1.755-.55-2.61.005,0,.005-.01,0-.01-.065-.26-.135-.51-.21-.765s-.15-.515-.23-.77c-.135-.435-.285-.865-.44-1.285-.07-.2-.145-.4-.225-.6-.005-.02-.015-.04-.02-.055l-.1-.33a6.541,6.541,0,0,1-.055-2.73,6.486,6.486,0,0,1-2.24-1.73l-.155-.21c-.045-.075-.1-.15-.145-.225-.035-.055-.07-.11-.11-.165-.07-.11-.145-.22-.225-.34-.355-.52-.725-1.025-1.11-1.525a1.034,1.034,0,0,0-.07-.085c-.15-.195-.31-.395-.465-.585-.005,0-.01-.015-.02-.02l-.135-.19a6.575,6.575,0,0,1-.965-2.68,6.526,6.526,0,0,1-2.655-.95l-.225-.16c-.4-.32-.8-.635-1.205-.94-.23-.17-.46-.34-.7-.5-.085-.06-.175-.12-.26-.18L976.6,68.6l-.015,0h-.01c-.115-.075-.225-.155-.34-.23-.135-.09-.275-.18-.415-.27l-.2-.145a6.566,6.566,0,0,1-1.725-2.235,6.715,6.715,0,0,1-1.235.115,6.518,6.518,0,0,1-1.49-.17l-.33-.105a.244.244,0,0,0-.035-.015c-.045-.02-.095-.035-.145-.055-.03-.01-.065-.025-.1-.04v0a27.707,27.707,0,0,0-2.665-.88l-.415-2.69c.73.175,1.445.375,2.155.595.4.13.8.26,1.19.405.3.11.61.225.91.34a.016.016,0,0,0,.01,0,4,4,0,0,0,4.485-2.08,4,4,0,0,0,.995,4.885c.255.16.505.325.755.5a0,0,0,0,1,.005,0c.205.135.405.28.605.425l.215.155c.075.055.15.1.22.16.2.145.4.3.595.45.235.18.47.37.7.56a4,4,0,0,0,4.96-.56,4,4,0,0,0-.555,4.97c.185.225.365.45.55.68a.015.015,0,0,0,.005.01c.15.195.3.4.45.6.05.07.105.145.16.22s.1.14.155.215q.233.315.45.645c.16.235.32.475.47.715a4,4,0,0,0,4.89,1,3.992,3.992,0,0,0-2.185,3.57,4.078,4.078,0,0,0,.105.915c.12.31.24.62.35.935C990.265,82.58,990.4,82.97,990.52,83.365Z"/>
            <path id="Path_1276" data-name="Path 1276" class="cls-6" d="M969.635,123.52a31.408,31.408,0,0,1-5.285,1.185l.4-2.585c.885-.145,1.755-.325,2.61-.55.005,0,.01,0,.01,0,.26-.065.51-.135.765-.21s.515-.15.77-.23c.435-.135.865-.285,1.285-.44.2-.07.4-.145.595-.225.02,0,.04-.015.055-.02l.33-.105a6.541,6.541,0,0,1,2.73-.055,6.485,6.485,0,0,1,1.73-2.24l.21-.155c.075-.045.15-.1.225-.145.055-.035.11-.07.165-.11.11-.07.22-.145.34-.225.52-.355,1.025-.725,1.525-1.11a1.039,1.039,0,0,0,.085-.07c.2-.15.4-.31.585-.465.005,0,.015-.01.02-.02l.19-.135a6.574,6.574,0,0,1,2.68-.965,6.526,6.526,0,0,1,.95-2.655l.16-.225c.32-.395.635-.795.94-1.205.17-.23.34-.46.5-.695.06-.085.12-.175.18-.26l.015-.005.005-.015v-.01c.075-.115.155-.225.23-.34.09-.135.18-.275.27-.415l.145-.2a6.567,6.567,0,0,1,2.235-1.725,6.719,6.719,0,0,1-.115-1.235,6.516,6.516,0,0,1,.17-1.49l.1-.33a.243.243,0,0,0,.015-.035c.02-.045.035-.1.055-.145.01-.03.025-.065.04-.1h-.005a27.7,27.7,0,0,0,.88-2.665l2.69-.415c-.175.73-.375,1.445-.595,2.155-.13.4-.26.8-.405,1.19-.11.305-.225.61-.34.91a.015.015,0,0,0-.005.01,4,4,0,0,0,2.08,4.485,4,4,0,0,0-4.885.995c-.16.255-.325.505-.495.755a0,0,0,0,1-.005,0c-.135.205-.28.4-.425.6l-.155.215c-.055.075-.105.15-.16.22-.145.2-.295.4-.45.6-.18.235-.37.47-.56.7a4,4,0,0,0,.56,4.96,4,4,0,0,0-4.97-.555c-.225.185-.45.365-.68.55a.016.016,0,0,0-.01,0c-.2.15-.4.3-.595.45l-.22.16c-.07.05-.14.105-.215.155q-.315.232-.645.45c-.235.16-.475.32-.715.47a4,4,0,0,0-1,4.89,3.992,3.992,0,0,0-3.57-2.185,4.078,4.078,0,0,0-.915.105c-.31.12-.62.24-.935.35C970.42,123.265,970.03,123.4,969.635,123.52Z"/>
          </g>
          <g id="Group_566" data-name="Group 566">
            <path id="Path_1277" data-name="Path 1277" class="cls-6" d="M960,125a32,32,0,0,0,0-64Z"/>
            <path id="Path_1278" data-name="Path 1278" class="cls-5" d="M960,119a26,26,0,0,0,0-52Z"/>
          </g>
        </g>
        <g id="Group_572" data-name="Group 572">
          <g id="Group_568" data-name="Group 568">
            <path id="Path_1279" data-name="Path 1279" class="cls-6" d="M1017.063,74.459a59.473,59.473,0,0,1,1.558,5.75l-23.765,3.569-1.236-3.805,21.324-11.082Q1016.129,71.59,1017.063,74.459Z"/>
            <path id="Path_1280" data-name="Path 1280" class="cls-6" d="M1008.541,57.733q1.771,2.439,3.259,4.987L990.3,73.458l-2.351-3.236L1004.8,53.093Q1006.766,55.294,1008.541,57.733Z"/>
            <path id="Path_1281" data-name="Path 1281" class="cls-6" d="M995.267,44.459q2.439,1.771,4.64,3.736L982.778,65.051,979.542,62.7,990.28,41.2Q992.824,42.688,995.267,44.459Z"/>
            <path id="Path_1282" data-name="Path 1282" class="cls-6" d="M978.541,35.937q2.868.931,5.568,2.119L973.027,59.38l-3.8-1.236,3.569-23.765A59.484,59.484,0,0,1,978.541,35.937Z"/>
            <path id="Path_1283" data-name="Path 1283" class="cls-6" d="M1017.063,111.541a59.473,59.473,0,0,0,1.558-5.75l-23.765-3.569-1.236,3.805,21.324,11.082Q1016.129,114.41,1017.063,111.541Z"/>
            <path id="Path_1284" data-name="Path 1284" class="cls-6" d="M1008.541,128.267q1.771-2.439,3.259-4.987l-21.5-10.738-2.351,3.236,16.856,17.129Q1006.766,130.707,1008.541,128.267Z"/>
            <path id="Path_1285" data-name="Path 1285" class="cls-6" d="M995.267,141.541q2.439-1.771,4.64-3.736l-17.129-16.856-3.236,2.351,10.738,21.5Q992.824,143.312,995.267,141.541Z"/>
            <path id="Path_1286" data-name="Path 1286" class="cls-6" d="M978.541,150.063q2.868-.932,5.568-2.119L973.027,126.62l-3.8,1.236,3.569,23.765A59.487,59.487,0,0,0,978.541,150.063Z"/>
          </g>
          <g id="Group_571" data-name="Group 571">
            <g id="Group_569" data-name="Group 569">
              <path id="Path_1287" data-name="Path 1287" class="cls-5" d="M1016.448,72.677l-22.4,8.6-.423-1.3,21.324-11.082Q1015.759,70.741,1016.448,72.677Z"/>
              <path id="Path_1288" data-name="Path 1288" class="cls-5" d="M1007.405,56.228l-18.651,15.1-.805-1.108L1004.8,53.093Q1006.151,54.6,1007.405,56.228Z"/>
              <path id="Path_1289" data-name="Path 1289" class="cls-5" d="M993.722,43.379,980.651,63.505l-1.109-.805L990.28,41.2C991.443,41.879,992.593,42.6,993.722,43.379Z"/>
              <path id="Path_1290" data-name="Path 1290" class="cls-5" d="M976.737,35.387l-6.212,23.18-1.3-.423,3.569-23.765C974.107,34.664,975.424,35,976.737,35.387Z"/>
            </g>
            <g id="Group_570" data-name="Group 570">
              <path id="Path_1291" data-name="Path 1291" class="cls-5" d="M980.323,149.448l-8.6-22.4,1.3-.423,11.082,21.324Q982.259,148.758,980.323,149.448Z"/>
              <path id="Path_1292" data-name="Path 1292" class="cls-5" d="M996.772,140.4l-15.1-18.651,1.108-.805L999.907,137.8Q998.4,139.15,996.772,140.4Z"/>
              <path id="Path_1293" data-name="Path 1293" class="cls-5" d="M1009.621,126.722l-20.126-13.071.8-1.109,21.5,10.738C1011.121,124.443,1010.4,125.593,1009.621,126.722Z"/>
              <path id="Path_1294" data-name="Path 1294" class="cls-5" d="M1017.613,109.737l-23.18-6.212.423-1.3,23.765,3.569C1018.336,107.107,1018,108.424,1017.613,109.737Z"/>
            </g>
          </g>
        </g>
      </g>
      <g id="Group_576" data-name="Group 576">
        <g id="Group_574" data-name="Group 574">
          <path id="Path_1295" data-name="Path 1295" class="cls-5" d="M960,33l-8,52,8,8Z"/>
          <path id="Path_1296" data-name="Path 1296" class="cls-5" d="M960,93v60l8-52Z"/>
          <path id="Path_1297" data-name="Path 1297" class="cls-5" d="M960,93H900l52,8Z"/>
          <path id="Path_1298" data-name="Path 1298" class="cls-5" d="M1020,93l-16.265-5.425A4.074,4.074,0,0,1,1004,89a3.9,3.9,0,0,1-.29,1.5L991.705,88.65,968,85l-8,8h40a4,4,0,0,1,4,4,4.074,4.074,0,0,1-.265,1.425Zm-13.825-1.975,5.92,1.975-5.92,1.975A6.425,6.425,0,0,0,1005.12,93,6.425,6.425,0,0,0,1006.175,91.025Z"/>
        </g>
        <g id="Group_575" data-name="Group 575">
          <path id="Path_1299" data-name="Path 1299" class="cls-6" d="M1003.71,95.5A4,4,0,0,0,1000,93H960l8,8Z"/>
          <path id="Path_1300" data-name="Path 1300" class="cls-6" d="M960,33l8,52-8,8Z"/>
          <path id="Path_1301" data-name="Path 1301" class="cls-6" d="M960,93v60l-8-52Z"/>
          <path id="Path_1302" data-name="Path 1302" class="cls-6" d="M960,93H900l52-8Z"/>
        </g>
      </g>
    </g>
  </g>
</svg>
